/* XPM */
static char *_667160173117[] = {
/* columns rows colors chars-per-pixel */
"80 80 103 2 ",
"   c #0028005F0060",
".  c #04500A3A0A3A",
"X  c #09DC0BE40BE4",
"o  c #040414611499",
"O  c #0DB4119F119F",
"+  c #02B2172617C3",
"@  c #05B91AE71B1C",
"#  c #07A01ECE1ECE",
"$  c #127715D015D0",
"%  c #14C31B4F1B4F",
"&  c #18B11CF81CF8",
"*  c #032C1EF71FDF",
"=  c #03C12276236D",
"-  c #08B6232F232F",
";  c #0AAA273427FB",
":  c #07722A9C2B3D",
">  c #0AD12BAF2BAF",
",  c #1B5D24DF24DF",
"<  c #1D5F2AC72AC7",
"1  c #0CA833A433AA",
"2  c #0E593BB23BCB",
"3  c #0FB03F5B3F5B",
"4  c #22C323B423B4",
"5  c #24BD2BCD2BCD",
"6  c #2B7C2C272C27",
"7  c #2135334E334E",
"8  c #2B4132DB32DB",
"9  c #23FB3C4D3C4D",
"0  c #361E361E361E",
"q  c #33493B633B63",
"w  c #3CC13CC13CC1",
"e  c #0E2B422742AE",
"r  c #0C074B664D6B",
"t  c #10C243AF43AF",
"y  c #124D4CCC4CF1",
"u  c #11CC4F904FF3",
"i  c #145E53E853FD",
"p  c #1E1756555655",
"a  c #16CD5C445C46",
"s  c #19D15C4E5C4E",
"d  c #24E244DE44DE",
"f  c #23E44B7D4B7D",
"g  c #3B5143C143C1",
"h  c #212C51E551E5",
"j  c #18E0645F645F",
"k  c #1A1969646964",
"l  c #0C3F77887B07",
"z  c #446444644464",
"x  c #42E24B844B84",
"c  c #4C724C724C72",
"v  c #475050025002",
"b  c #4AC5537E537E",
"n  c #4F9858525852",
"m  c #523252325232",
"M  c #54D15D825D82",
"N  c #5BA95BA95BA9",
"B  c #575C60066006",
"V  c #5BD4646B646B",
"C  c #63C163C163C1",
"Z  c #65346D906D90",
"A  c #6CCB6CCB6CCB",
"S  c #6CB374D274D2",
"D  c #73D373D373D3",
"F  c #745B7C287C28",
"G  c #7A467C2E7C2E",
"H  c #0E2189EC8DF5",
"J  c #0EC1900E9445",
"K  c #0F3C94B89912",
"L  c #0FB3993F9DBB",
"P  c #1084A134A5EC",
"I  c #10DBA486A957",
"U  c #115CA97AAE70",
"Y  c #11F4AF43B463",
"T  c #1211B061B58A",
"R  c #7AA582298229",
"E  c #8417851E851E",
"W  c #854D8C418C41",
"Q  c #8A928BCB8BCB",
"!  c #8DD8944D944D",
"~  c #92D8951F951F",
"^  c #95A79B999B99",
"/  c #9A7B9B729B72",
"(  c #9DD4A33CA33C",
")  c #A2BEA406A406",
"_  c #A5C3AA97AA97",
"`  c #AB62AE05AE05",
"'  c #ADF3B22EB22E",
"]  c #B3C6B465B465",
"[  c #B7B2BB39BB39",
"{  c #BB36BC9FBC9F",
"}  c #BECDC1BEC1BE",
"|  c #C379C471C471",
" . c #C708C95CC95C",
".. c #CBD4CCA9CCA9",
"X. c #CF6CD129D129",
"o. c #D47BD538D538",
"O. c #D80DD91ED91E",
"+. c #DCEEDD46DD46",
"@. c #DFFAE097E097",
"#. c #E406E42CE42C",
"$. c #EBE7EBEEEBEE",
"%. c #F3FFF3FFF3FF",
"&. c #FFC6FFC6FFC6",
/* pixels */
"&.&.&.&.&.&.&.&.&.&.&.&.&.&.&.&.&.&.&.&.&.&.&.&.&.&.&.&.&.&.&.&.&.&.&.&.&.&.&.&.&.&.&.&.&.&.&.&.&.&.&.&.&.&.&.&.&.&.&.&.&.&.&.&.&.&.&.&.&.&.&.&.&.&.&.&.&.&.&.&.",
"&.&.&.&.&.&.&.&.&.&.&.&.&.&.&.&.&.&.&.&.&.&.&.&.&.&.&.&.&.&.&.&.&.&.&.&.&.&.&.&.&.&.&.&.&.&.&.&.&.&.&.&.&.&.&.&.&.&.&.&.&.&.&.&.&.&.&.&.&.&.&.&.&.&.&.&.&.&.&.&.",
"&.&.&.&.&.&.&.&.&.&.&.&.&.&.&.&.&.&.&.&.&.&.&.&.&.&.&.&.&.&.&.&.&.&.&.&.&.&.#.Z 5 b  .&.&.&.&.&.&.&.&.&.&.&.&.&.&.&.&.&.&.&.&.&.&.&.&.&.&.&.&.&.&.&.&.&.&.&.&.&.",
"&.&.&.&.&.&.&.&.&.&.&.&.&.&.&.&.&.&.&.&.&.&.&.&.&.&.&.&.&.&.&.&.&.&.&.&.+.v   @ t >   <  .&.&.&.&.&.&.&.&.&.&.&.&.&.&.&.&.&.&.&.&.&.&.&.&.&.&.&.&.&.&.&.&.&.&.&.",
"&.&.&.&.&.&.&.&.&.&.&.&.&.&.&.&.&.&.&.&.&.&.&.&.&.&.&.&.&.&.&.&.&.&.O.g   ; a j p s j 1   , | &.&.&.&.&.&.&.&.&.&.&.&.&.&.&.&.&.&.&.&.&.&.&.&.&.&.&.&.&.&.&.&.&.",
"&.&.&.&.&.&.&.&.&.&.&.&.&.&.&.&.&.&.&.&.&.&.&.&.&.&.&.&.&.&.&.&.| 6   > s j d       7 s j 1   % ] &.&.&.&.&.&.&.&.&.&.&.&.&.&.&.&.&.&.&.&.&.&.&.&.&.&.&.&.&.&.&.",
"&.&.&.&.&.&.&.&.&.&.&.&.&.&.&.&.&.&.&.&.&.&.&.&.&.&.&.&.&.&.) O   1 s j d   6  .&.+.N   7 s j 2     ~ %.&.&.&.&.&.&.&.&.&.&.&.&.&.&.&.&.&.&.&.&.&.&.&.&.&.&.&.&.",
"&.&.&.&.&.&.&.&.&.&.&.&.&.&.&.&.&.&.&.&.&.&.&.&.&.&.&.#.S     2 j s 9   0 ..&.&.&.&.&.#.C   < p j t .   V +.&.&.&.&.&.&.&.&.&.&.&.&.&.&.&.&.&.&.&.&.&.&.&.&.&.&.",
"&.&.&.&.&.&.&.&.&.&.&.&.&.&.&.&.&.&.&.&.&.&.&.&.%.` 5   @ i j s <   m O.&.&.&.&.&.&.&.&.&.#.D   $ h j i -   $ ^ %.&.&.&.&.&.&.&.&.&.&.&.&.&.&.&.&.&.&.&.&.&.&.&.",
"&.&.&.&.&.&.&.&.&.&.&.&.&.&.&.&.&.&.&.&.&.%.} x     1 j j f .   D #.&.&.&.&.&.&.&.&.&.&.&.&.&.$.~     f s j 3 .   8 ` %.&.&.&.&.&.&.&.&.&.&.&.&.&.&.&.&.&.&.&.&.",
"&.&.&.&.&.&.&.&.&.&.&.&.&.&.&.&.&.&.#.( q     > a k p 9     / %.&.&.&.&.&.&...5   X _ &.&.&.&.&.&.&.[ 6   < p j a 2     5 ! @.&.&.&.&.&.&.&.&.&.&.&.&.&.&.&.&.&.",
"&.&.&.&.&.&.&.&.&.&.&.&.&.%.O./ x     . 1 a j s d     N X.&.&.&.&.&.&.&.} ,   1 a 2     _ %.&.&.&.&.&.&.+.G     9 p j a 2 .     g ! o.%.&.&.&.&.&.&.&.&.&.&.&.&.",
"&.&.&.&.&.&.&.&.&.#.R 5       . > y j j p d     w ] %.&.&.&.&.&.&.%._ X   1 j k k k j t     W %.&.&.&.&.&.&.&.{ N   . < p j j i 1 o       4 B ..&.&.&.&.&.&.&.&.",
"&.&.&.&.&.&.&.&...  @ 2 i a k j s f ,     m ] $.&.&.&.&.&.&.&.$.R     3 j k k k k k k k j y .   M O.&.&.&.&.&.&.&.%.| C     % d p j j a i e ;   ~ &.&.&.&.&.&.&.",
"&.&.&.&.&.&.&.&.q > k p d 5       w ~ o.&.&.&.&.&.&.&.&.&.| g   . y k k k k k k k k k k k k k i -   % ) %.&.&.&.&.&.&.&.&.+.) c       , 9 h j t   &.&.&.&.&.&.&.",
"&.&.&.&.&.&.&.&.$ y f   N Q | #.%.&.&.&.&.&.&.&.&.&.+.S     > s k k k k k k k k k k k k k k k k j j 2     b  .%.&.&.&.&.&.&.&.&.&.$. ./ C 4 < j   &.&.&.&.&.&.&.",
"&.&.&.&.&.&.&.&.  u f m &.&.&.&.&.&.&.&.&.&.&.+.R X   @ y j k k k k k k k k k k k k k k k k k k k k k k i >     V  .&.&.&.&.&.&.&.&.&.&.&./ & j   &.&.&.&.&.&.&.",
"&.&.&.&.&.&.&.&.  y d m &.&.&.&.&.&.&.%.[ M     @ t j k k j k k k k k k k k k k k k k k k k k k k k k k k k j i ;     x _ $.&.&.&.&.&.&.&./ , j   &.&.&.&.&.&.&.",
"&.&.&.&.&.&.&.&.  i d m &.&.&.%.) M .     ; y j k k k k k k k k k k k k k k k k k k k k k k k k k k k k k k k k j j i 1       x ^ #.&.&.&./ , j   &.&.&.&.&.&.&.",
"&.&.&.&.&.&.&.&.  y f c &.&.&.8   > y s k k k k k k k k k k k k k k k k k k k k k k k k k k k k k k k k k k k k k k k k k s y 1 .   &.&.&.^ , j   &.&.&.&.&.&.&.",
"&.&.&.&.&.&.&.&.  y f z &.&.&.& t k k k k k k k k k k k k k k k k k k k k k k k k k k k k k k k k k k k k k k k k k k k k k k k a   &.&.&./ , j   &.&.&.&.&.&.&.",
"&.&.&.&.&.&.&.&.. y f z &.&.&., t k k k k k k k k k k k k k k k k k k k k k k k k k k k k k k k k k k k k k k k k k k k k k k k a   &.&.&.^ , j   &.&.&.&.&.&.&.",
"&.&.&.&.&.&.&.&.O y f 0 &.&.&.8 3 k k k k k k k k j d .                 9 k k k k k k k k k k k k k k k k k k k k k k k k k k k a   &.&.&.~ < a   &.&.&.&.&.&.&.",
"&.&.&.&.&.&.&.&., e f 4 &.&.&.q 2 k k k k k k k j X X ] +.#.#.#.#.#.#.+.  a k k k k k k k k k k k k k k k k k k k k k k k k k k a   &.&.&.E 5 a   &.&.&.&.&.&.&.",
"&.&.&.&.&.&.&.&.5 t h $ &.&.&.g 1 k k k k k k k 9 5 #.c                 O j k k k k k k k k k k k k k k k k k k k k k k k k k k a   &.&.&.G 9 a   &.&.&.&.&.&.&.",
"&.&.&.&.&.&.&.&.q 3 h   &.&.%.n 1 k k k k k k k   +.6 7 p s s s s s s s k k k k k k k k k ; @ i k k k k k k k k k k k k k k k k i   &.&.&.A 9 i   &.&.&.&.&.&.&.",
"&.&.&.&.&.&.&.&.v 1 h . &.&.&.Z > k k k k k k s   %.  j k k k k k k k k k k k k k k k k e   r + k k k k k k k k k k k k k k k k u   &.&.&.N d i   &.&.&.&.&.&.&.",
"&.&.&.&.&.&.&.&.V > s   &.&.&.F # k k k k k k s   $.  j k k k k k k k k k k k k k k k k e ; K . k k k k k k k k k k k k k k k k y X &.&.&.w f y   &.&.&.&.&.&.&.",
"&.&.&.&.&.&.&.&.F - s   %.&.&.! o k k k k k k s   $.  j k k k k k k k k k k k k :   y k e   J . k k k k k k k k k k k k k k k k t 6 &.&.&.5 f y & &.&.&.&.&.&.&.",
"&.&.&.&.&.&.&.&.! o j   %.&.&._ . k k k k k k s   $.  j k k k k k k k k k k k i   H . k 3 + K   k k k k k k k k k k k k k k k k 1 x &.&.&.  p 2 8 &.&.&.&.&.&.&.",
"&.&.&.&.&.&.&.&.` . j   #.&.&.{   k k k k k k s   $.  j k k k k k k k k k k k i + P   k y # L   k k k k k k k k k k k k k k k k = Z &.&.&.  p 1 v &.&.&.&.&.&.&.",
"&.&.&.&.&.&.&.&.|   j   +.&.&.o.  j k k k k k s   $.  j k k k k k k k k k k k y + P   k r * K . k k k k k k k k k k k k k k k k o W &.&.&.  s > Z &.&.&.&.&.&.&.",
"&.&.&.&.&.&.&.&.+.  k   | &.&.#.  j k k k k j s   $.  j k k k k k k k e * i k i + P   k y * L   k k k k k k k k k k k k k k k k . ` &.&.$.  j o ! &.&.&.&.&.&.&.",
"&.&.&.&.&.&.&.&.$.  j O ` &.&.$.  j k k k k k s   $.  j k k k k k k a   l   k y + P   k y = K . k k k k k k k k k k k k k k k k   ..&.&.#.  j   ' &.&.&.&.&.&.&.",
"&.&.&.&.&.&.&.&.%.  a 5 Q &.&.&.  i k k k k k s   $.  j k k k k k k i   U   k u + P   k r = K   k k k k k k k k k k k k k k k k   #.&.&. .  j   o.&.&.&.&.&.&.&.",
"&.&.&.&.&.&.&.&.&.  i d C &.&.&.  y k k k k k s   $.  j k k k k k k i   U   k u + P   k y = L   k j f f h h h s k k k k k k k j   %.&.&.] O j   #.&.&.&.&.&.&.&.",
"&.&.&.&.&.&.&.&.&.X y f 6 &.&.&.8 t k k k k k s   $.  j k k 2 . u k i   U   k y + P   k u = L   k < 5 z 4           , j k k k i   &.&.&.Q 7 a   &.&.&.&.&.&.&.&.",
"&.&.&.&.&.&.&.&.&.q 2 p   &.&.&.V > k k k k k s   $.  j j a   H   k i . U   k i + P   k y = L   j . / O.#.%.%.&.$.+.$ h k k k t % &.&.&.m d i   &.&.&.&.&.&.&.&.",
"&.&.&.&.&.&.&.&.&.S ; a   %.&.%.~ o k k k k k s   $.  j k a   Y   k i   U   k y + P   k r = L   k p O         A &.&.A 9 k k k 1 n &.&.&.$ h e , &.&.&.&.&.&.&.&.",
"&.&.&.&.&.&.&.&.&.( . k   +.&.&. .  k k k k k s   $.  j k i   T   k u . U   k u + P   k r : L   k k k k j f   ] Q [ ` O k k j o W &.&.&.  p > M &.&.&.&.&.&.&.&.",
"&.&.&.&.&.&.&.&.&.o.  j   { &.&.$.  j k k k k s   $.  j k i   Y   k i   U   k y + I   k y = L   k k k k d   o.E   m +.  j k k   | &.&.$.  j o ~ &.&.&.&.&.&.&.&.",
"&.&.&.&.&.&.&.&.&.$.  j < Q &.&.&.  i k k k k s   $.  j k s   Y   k i   I   k i   L   k y + K . k k k d   O.G   p   %.  s k j   #.&.&.|   j    .&.&.&.&.&.&.&.&.",
"&.&.&.&.&.&.&.&.&.&.  i f z &.&.&.< 3 k k k k s   $.  j k j     1 k j .   2 k j     e k j     e k k 9   +.D   s s   %.  p k i   &.&.&.~ < j   $.&.&.&.&.&.&.&.&.",
"&.&.&.&.&.&.&.&.&.&.8 3 p   &.&.&.D # k k k j s   $.  j k k k j k k k j j k k k k a k k k j j k j 9   +.A   s k k   o.c d k 2 8 &.&.&.c d i   &.&.&.&.&.&.&.&.&.",
"&.&.&.&.&.&.&.&.&.&.R @ j   #.&.&.}   k k k k s   $.  j k k k k k k k k k k k k k k k k k k k k 9   #.N   a k k k & / A 9 k o W &.&.&.  p 3 8 &.&.&.&.&.&.&.&.&.",
"&.&.&.&.&.&.&.&.&.&.|   j   [ &.&.%.  a k k k j   #.  h k k k k k k k k k k k k k k k k k k k 7 . $.N   j k k k k p     p k   ..&.&.#.  j @ R &.&.&.&.&.&.&.&.&.",
"&.&.&.&.&.&.&.&.&.&.%.  s 9 A &.&.&.$ t k k k k % D ]                   f k k k k k k k k j < $ $.c X j k k k k k k k k k a   %.&.&.]   j   ..&.&.&.&.&.&.&.&.&.",
"&.&.&.&.&.&.&.&.&.&.&.O t h   &.&.&.R @ k k k k p   Q $...| | | } | | {   s k k k k k k j < 4 $.z $ j j k k k k k k k k k 2 5 &.&.&.C 9 s   %.&.&.&.&.&.&.&.&.&.",
"&.&.&.&.&.&.&.&.&.&.&.S # j   #.&.&.O.  j k k k k p .     4 4 4 4 4 4  .A & k k k k k j & 5 %.0 % j k k k k k k k k k k k . ! &.&.&.  p 2 , &.&.&.&.&.&.&.&.&.&.",
"&.&.&.&.&.&.&.&.&.&.&. .  j X ` &.&.&.  y k k k k k k s p h h h h h f   %.  f k k k j & 0 %.5 , j j k k k k k k k k k k j   $.&.&.+.  j o W &.&.&.&.&.&.&.&.&.&.",
"&.&.&.&.&.&.&.&.&.&.&.&.  i f 0 &.&.&.F o j k k k k k k k k k k k k k & S |   s k j $ w %.4 < j k k k k k k k k k k k k 1 5 &.&.&.Q , j   +.&.&.&.&.&.&.&.&.&.&.",
"&.&.&.&.&.&.&.&.&.&.&.&.b > s   $.&.&.#.  a k k k k k k k k k k k k k s   | A & j X z $.$ < k k k k k k k k k k k k k j   [ &.&.&.  h y   &.&.&.&.&.&.&.&.&.&.&.",
"&.&.&.&.&.&.&.&.&.&.&.&.}   j O / &.&.&.x - k k k k k k k k k k k k k k f   %.  . m $.X 7 j k k k k k k k k k k k k j 2 $ &.&.&...  j o G &.&.&.&.&.&.&.&.&.&.&.",
"&.&.&.&.&.&.&.&.&.&.&.&.&.  y h   &.&.&.#.  i k k k k k k k k k k k k k k & A ..Q #.  7 k k k k k k k k k k k k k k a   } &.&.&.c d a   #.&.&.&.&.&.&.&.&.&.&.&.",
"&.&.&.&.&.&.&.&.&.&.&.&.&.S o k   ] &.&.&.Z . j k k k k k k k k k k k k k a   Q ]   9 j k k k k k k k k k k k k k k @ x &.&.&.O.  s > q &.&.&.&.&.&.&.&.&.&.&.&.",
"&.&.&.&.&.&.&.&.&.&.&.&.&.$.  a f   %.&.&.&.$ > k k k k k k k k k k k k k k p , . f k k k k k k k k k k k k k k k t   $.&.&.&.c 7 j   X.&.&.&.&.&.&.&.&.&.&.&.&.",
"&.&.&.&.&.&.&.&.&.&.&.&.&.&.M @ j   ~ &.&.&.+.  3 k k k k k k k k k k k k k k k k k k k k k k k k k k k k k k k i   [ &.&.&.[   j ; q &.&.&.&.&.&.&.&.&.&.&.&.&.",
"&.&.&.&.&.&.&.&.&.&.&.&.&.&.$.  i p   O.&.&.&.|   y k k k k k k k k k k k k k k k k k k k k k k k k k k k k k a   W &.&.&.$.  f i   +.&.&.&.&.&.&.&.&.&.&.&.&.&.",
"&.&.&.&.&.&.&.&.&.&.&.&.&.&.&.Q   j d   $.&.&.&.`   y k k k k k k k k k k k k k k k k k k k k k k k k k k k a   V &.&.&.&.c < j   F &.&.&.&.&.&.&.&.&.&.&.&.&.&.",
"&.&.&.&.&.&.&.&.&.&.&.&.&.&.&.&.6 - k < w %.&.&.&./   i k k k k k k k k k k k k k k k k k k k k k k k k j j   v &.&.&.&.Q   j > $ &.&.&.&.&.&.&.&.&.&.&.&.&.&.&.",
"&.&.&.&.&.&.&.&.&.&.&.&.&.&.&.&.$.  1 j X C &.&.&.&.~   y k k k k k k k k k k k k k k k k k k k k k k k a   b &.&.&.&.)   s t   +.&.&.&.&.&.&.&.&.&.&.&.&.&.&.&.",
"&.&.&.&.&.&.&.&.&.&.&.&.&.&.&.&.&.O.  t a   D &.&.&.&.(   t k k k k k k k k k k k k k k k k k k k k k a   M &.&.&.&.]   p i   ' &.&.&.&.&.&.&.&.&.&.&.&.&.&.&.&.",
"&.&.&.&.&.&.&.&.&.&.&.&.&.&.&.&.&.&.[   y s   E &.&.&.&.'   3 k k k k k k k k k k k k k k k k k k j y   D &.&.&.&.]   p a   R &.&.&.&.&.&.&.&.&.&.&.&.&.&.&.&.&.",
"&.&.&.&.&.&.&.&.&.&.&.&.&.&.&.&.&.&.&.(   i s   G &.&.&.&. .  > j k k k k k k k k k k k k k k k k t   ^ &.&.&.&.'   h s   V &.&.&.&.&.&.&.&.&.&.&.&.&.&.&.&.&.&.",
"&.&.&.&.&.&.&.&.&.&.&.&.&.&.&.&.&.&.&.&.!   i s   G &.&.&.&.#.X o a k k k k k k k k k k k k k k >   } &.&.&.&.)   h a   n &.&.&.&.&.&.&.&.&.&.&.&.&.&.&.&.&.&.&.",
"&.&.&.&.&.&.&.&.&.&.&.&.&.&.&.&.&.&.&.&.&.!   i s   N &.&.&.&.%.x   y k k k k k k k k k k k a . $ #.&.&.&.&.Q   p a   M &.&.&.&.&.&.&.&.&.&.&.&.&.&.&.&.&.&.&.&.",
"&.&.&.&.&.&.&.&.&.&.&.&.&.&.&.&.&.&.&.&.&.&.~   y s . w %.&.&.&.&.!   1 k j k k k k k k k t   M %.&.&.&.&.A   p a   V &.&.&.&.&.&.&.&.&.&.&.&.&.&.&.&.&.&.&.&.&.",
"&.&.&.&.&.&.&.&.&.&.&.&.&.&.&.&.&.&.&.&.&.&.&.)   t j <   +.&.&.&.&.o.. . a k k k k k j -   ` &.&.&.&.$.0 . s i   F &.&.&.&.&.&.&.&.&.&.&.&.&.&.&.&.&.&.&.&.&.&.",
"&.&.&.&.&.&.&.&.&.&.&.&.&.&.&.&.&.&.&.&.&.&.&.&.{   1 k 9   [ &.&.&.&.%.Z   2 j k k y   8 $.&.&.&.&.o.  < j t   ^ &.&.&.&.&.&.&.&.&.&.&.&.&.&.&.&.&.&.&.&.&.&.&.",
"&.&.&.&.&.&.&.&.&.&.&.&.&.&.&.&.&.&.&.&.&.&.&.&.&.O.  - j h   G &.&.&.&.&. .    i @   / &.&.&.&.&./   d j >   } &.&.&.&.&.&.&.&.&.&.&.&.&.&.&.&.&.&.&.&.&.&.&.&.",
"&.&.&.&.&.&.&.&.&.&.&.&.&.&.&.&.&.&.&.&.&.&.&.&.&.&.$.5   a p . 4 +.&.&.&.&.&.F   b $.&.&.&.&.$.c   h j o X @.&.&.&.&.&.&.&.&.&.&.&.&.&.&.&.&.&.&.&.&.&.&.&.&.&.",
"&.&.&.&.&.&.&.&.&.&.&.&.&.&.&.&.&.&.&.&.&.&.&.&.&.&.&.&.Z   t j 9   / &.&.&.&.&.&.&.&.&.&.&.]   < j i   x %.&.&.&.&.&.&.&.&.&.&.&.&.&.&.&.&.&.&.&.&.&.&.&.&.&.&.",
"&.&.&.&.&.&.&.&.&.&.&.&.&.&.&.&.&.&.&.&.&.&.&.&.&.&.&.&.&.]   ; j p   6 +.&.&.&.&.&.&.&.$.N   h j >   ^ &.&.&.&.&.&.&.&.&.&.&.&.&.&.&.&.&.&.&.&.&.&.&.&.&.&.&.&.",
"&.&.&.&.&.&.&.&.&.&.&.&.&.&.&.&.&.&.&.&.&.&.&.&.&.&.&.&.&.&.$.5   y j 9   E %.&.&.&.&.)   < s i . O +.&.&.&.&.&.&.&.&.&.&.&.&.&.&.&.&.&.&.&.&.&.&.&.&.&.&.&.&.&.",
"&.&.&.&.&.&.&.&.&.&.&.&.&.&.&.&.&.&.&.&.&.&.&.&.&.&.&.&.&.&.&.&.!   ; j s $   ` &.| %   h k 1   S &.&.&.&.&.&.&.&.&.&.&.&.&.&.&.&.&.&.&.&.&.&.&.&.&.&.&.&.&.&.&.",
"&.&.&.&.&.&.&.&.&.&.&.&.&.&.&.&.&.&.&.&.&.&.&.&.&.&.&.&.&.&.&.&.&.#.8   t j h       d j i   O X.&.&.&.&.&.&.&.&.&.&.&.&.&.&.&.&.&.&.&.&.&.&.&.&.&.&.&.&.&.&.&.&.",
"&.&.&.&.&.&.&.&.&.&.&.&.&.&.&.&.&.&.&.&.&.&.&.&.&.&.&.&.&.&.&.&.&.&.&.`   . i j p j a @   W &.&.&.&.&.&.&.&.&.&.&.&.&.&.&.&.&.&.&.&.&.&.&.&.&.&.&.&.&.&.&.&.&.&.",
"&.&.&.&.&.&.&.&.&.&.&.&.&.&.&.&.&.&.&.&.&.&.&.&.&.&.&.&.&.&.&.&.&.&.&.&.%.S   o 1 -   x $.&.&.&.&.&.&.&.&.&.&.&.&.&.&.&.&.&.&.&.&.&.&.&.&.&.&.&.&.&.&.&.&.&.&.&.",
"&.&.&.&.&.&.&.&.&.&.&.&.&.&.&.&.&.&.&.&.&.&.&.&.&.&.&.&.&.&.&.&.&.&.&.&.&.&.$.F x S +.&.&.&.&.&.&.&.&.&.&.&.&.&.&.&.&.&.&.&.&.&.&.&.&.&.&.&.&.&.&.&.&.&.&.&.&.&.",
"&.&.&.&.&.&.&.&.&.&.&.&.&.&.&.&.&.&.&.&.&.&.&.&.&.&.&.&.&.&.&.&.&.&.&.&.&.&.&.&.&.&.&.&.&.&.&.&.&.&.&.&.&.&.&.&.&.&.&.&.&.&.&.&.&.&.&.&.&.&.&.&.&.&.&.&.&.&.&.&."
};
